<?xml version="1.0" encoding="UTF-8" standalone="no"?>
<svg
   width="512px"
   height="512px"
   viewBox="0 0 512 512"
   version="1.1"
   id="svg8"
   sodipodi:docname="logo-react.svg"
   inkscape:version="1.1.2 (0a00cf5339, 2022-02-04)"
   xmlns:inkscape="http://www.inkscape.org/namespaces/inkscape"
   xmlns:sodipodi="http://sodipodi.sourceforge.net/DTD/sodipodi-0.dtd"
   xmlns="http://www.w3.org/2000/svg"
   xmlns:svg="http://www.w3.org/2000/svg">
  <defs
     id="defs12" />
  <sodipodi:namedview
     id="namedview10"
     pagecolor="#ffffff"
     bordercolor="#666666"
     borderopacity="1.0"
     inkscape:pageshadow="2"
     inkscape:pageopacity="0.0"
     inkscape:pagecheckerboard="0"
     showgrid="false"
     inkscape:zoom="0.5058594"
     inkscape:cx="98.841694"
     inkscape:cy="264.89574"
     inkscape:window-width="1366"
     inkscape:window-height="700"
     inkscape:window-x="0"
     inkscape:window-y="0"
     inkscape:window-maximized="1"
     inkscape:current-layer="svg8" />
  <title
     id="title2">ionicons-v5_logos</title>
  <g
     id="g28"
     transform="matrix(0.04166493,0,0,0.04672885,15.333361,40.036292)"
     style="fill:#ffffff">
    <path
       d="m 410.66,180.72 v 0 q -7.67,-2.62 -15.45,-4.88 1.29,-5.25 2.38,-10.56 c 11.7,-56.9 4.05,-102.74 -22.06,-117.83 -25,-14.48 -66,0.61 -107.36,36.69 q -6.1,5.34 -11.95,11 -3.9,-3.76 -8,-7.36 C 204.87,49.2 161.42,32.95 135.34,48.09 c -25,14.51 -32.43,57.6 -21.9,111.53 q 1.58,8 3.55,15.93 c -6.15,1.75 -12.09,3.62 -17.77,5.6 C 48.46,198.9 16,226.73 16,255.59 c 0,29.82 34.84,59.72 87.77,77.85 q 6.44,2.19 13,4.07 -2.13,8.49 -3.77,17.17 c -10,53 -2.2,95.07 22.75,109.49 25.77,14.89 69,-0.41 111.14,-37.31 q 5,-4.38 10,-9.25 6.32,6.11 13,11.86 c 40.8,35.18 81.09,49.39 106,34.93 25.75,-14.94 34.12,-60.14 23.25,-115.13 q -1.25,-6.3 -2.88,-12.86 4.56,-1.35 8.93,-2.79 c 55,-18.27 90.83,-47.81 90.83,-78 -0.02,-29 -33.52,-57.01 -85.36,-74.9 z m -129,-81.08 c 35.43,-30.91 68.55,-43.11 83.65,-34.39 v 0 c 16.07,9.29 22.32,46.75 12.22,95.88 q -1,4.8 -2.16,9.57 A 487.83,487.83 0 0 0 311.19,160.54 481.27,481.27 0 0 0 270.62,109.79 Q 276,104.57 281.64,99.64 Z M 157.73,280.25 q 6.51,12.6 13.61,24.89 7.23,12.54 15.07,24.71 a 435.28,435.28 0 0 1 -44.24,-7.13 c 4.24,-13.72 9.46,-27.97 15.56,-42.47 z m 0,-48.33 c -6,-14.19 -11.08,-28.15 -15.25,-41.63 13.7,-3.07 28.3,-5.58 43.52,-7.48 q -7.65,11.94 -14.72,24.23 -7.07,12.29 -13.58,24.88 z m 10.9,24.17 q 9.48,-19.77 20.42,-38.78 v 0 q 10.93,-19 23.27,-37.13 c 14.28,-1.08 28.92,-1.65 43.71,-1.65 14.79,0 29.52,0.57 43.79,1.66 q 12.21,18.09 23.13,37 10.92,18.91 20.69,38.6 Q 334,275.63 323,294.73 v 0 q -10.91,19 -23,37.24 c -14.25,1 -29,1.55 -44,1.55 -15,0 -29.47,-0.47 -43.46,-1.38 Q 200.11,313.95 189.08,294.85 178.05,275.75 168.6,256.09 Z M 340.75,305 q 7.25,-12.58 13.92,-25.49 v 0 a 440.41,440.41 0 0 1 16.12,42.32 434.44,434.44 0 0 1 -44.79,7.65 q 7.62,-12.09 14.75,-24.48 z m 13.72,-73.07 q -6.64,-12.65 -13.81,-25 v 0 q -7,-12.18 -14.59,-24.06 c 15.31,1.94 30,4.52 43.77,7.67 a 439.89,439.89 0 0 1 -15.37,41.39 z M 256.23,124.48 v 0 a 439.75,439.75 0 0 1 28.25,34.18 q -28.35,-1.35 -56.74,0 c 9.33,-12.34 18.88,-23.79 28.49,-34.18 z M 145.66,65.86 c 16.06,-9.32 51.57,4 89,37.27 2.39,2.13 4.8,4.36 7.2,6.67 a 491.37,491.37 0 0 0 -40.86,50.71 499.12,499.12 0 0 0 -64.06,10 q -1.83,-7.36 -3.3,-14.82 v 0 c -9.05,-46.23 -3.06,-81.08 12.02,-89.83 z M 122.25,317.71 Q 116.25,316 110.4,314 C 87,306 67.67,295.56 54.4,284.19 42.52,274 36.5,263.83 36.5,255.59 c 0,-17.51 26.06,-39.85 69.52,-55 q 8.19,-2.85 16.52,-5.21 a 493.54,493.54 0 0 0 23.4,60.75 502.46,502.46 0 0 0 -23.69,61.58 z m 111.13,93.67 c -18.63,16.32 -37.29,27.89 -53.74,33.72 v 0 c -14.78,5.23 -26.55,5.38 -33.66,1.27 -15.14,-8.75 -21.44,-42.54 -12.85,-87.86 q 1.53,-8 3.5,-16 a 480.85,480.85 0 0 0 64.69,9.39 501.2,501.2 0 0 0 41.2,51 c -2.98,2.93 -6.03,5.75 -9.14,8.48 z m 23.42,-23.22 c -9.72,-10.51 -19.42,-22.14 -28.88,-34.64 q 13.79,0.54 28.08,0.54 c 9.78,0 19.46,-0.21 29,-0.64 a 439.33,439.33 0 0 1 -28.2,34.74 z m 124.52,28.59 c -2.86,15.44 -8.61,25.74 -15.72,29.86 -15.13,8.78 -47.48,-2.63 -82.36,-32.72 -4,-3.44 -8,-7.13 -12.07,-11 a 484.54,484.54 0 0 0 40.23,-51.2 477.84,477.84 0 0 0 65,-10.05 q 1.47,5.94 2.6,11.64 v 0 c 4.81,24.3 5.5,46.28 2.32,63.47 z m 17.4,-102.64 v 0 c -2.62,0.87 -5.32,1.71 -8.06,2.53 a 483.26,483.26 0 0 0 -24.31,-60.94 481.52,481.52 0 0 0 23.36,-60.06 c 4.91,1.43 9.68,2.93 14.27,4.52 44.42,15.32 71.52,38 71.52,55.43 0,18.6 -29.27,42.74 -76.78,58.52 z"
       id="path4"
       style="fill:#ffffff" />
    <path
       d="m 256,298.55 a 43,43 0 1 0 -42.86,-43 42.91,42.91 0 0 0 42.86,43 z"
       id="path6"
       style="fill:#ffffff" />
  </g>
</svg>
