<?xml version="1.0" encoding="UTF-8" standalone="no"?>
<svg
   width="20"
   height="22"
   viewBox="0 0 20 22"
   fill="none"
   version="1.1"
   id="svg4"
   sodipodi:docname="notification-icon2.svg"
   inkscape:version="1.1.2 (0a00cf5339, 2022-02-04)"
   xmlns:inkscape="http://www.inkscape.org/namespaces/inkscape"
   xmlns:sodipodi="http://sodipodi.sourceforge.net/DTD/sodipodi-0.dtd"
   xmlns="http://www.w3.org/2000/svg"
   xmlns:svg="http://www.w3.org/2000/svg">
  <defs
     id="defs8" />
  <sodipodi:namedview
     id="namedview6"
     pagecolor="#ffffff"
     bordercolor="#666666"
     borderopacity="1.0"
     inkscape:pageshadow="2"
     inkscape:pageopacity="0.0"
     inkscape:pagecheckerboard="0"
     showgrid="false"
     inkscape:zoom="16.649151"
     inkscape:cx="8.5289636"
     inkscape:cy="11.111678"
     inkscape:window-width="1366"
     inkscape:window-height="700"
     inkscape:window-x="0"
     inkscape:window-y="0"
     inkscape:window-maximized="1"
     inkscape:current-layer="svg4" />
  <path
     d="m 16.133075,6.4841905 c 0,-3.44029 -2.7874,-6.22767397 -6.2276804,-6.22767397 -3.44029,0 -6.22768,2.78738397 -6.22768,6.22767397 0,2.07924 1.01954,3.9224505 2.5865,5.0524505 -0.01004,0.005 -0.01758,0.0075 -0.0226,0.0101 -1.12249,0.4746 -2.12946,1.1551 -2.99582,2.0239 -0.86134,0.8598 -1.54709,1.8791 -2.01897,3.0009 -0.46427895,1.0985 -0.71484695,2.2755 -0.73827995,3.4679 -6.7e-4,0.0268 0.004031,0.0535 0.013826,0.0784 0.009795,0.025 0.024487,0.0477 0.043209,0.0669 0.018721,0.0192 0.041095,0.0344 0.065801,0.0449 0.024707,0.0104 0.051247,0.0157 0.078057,0.0157 H 2.1936246 c 0.10798,0 0.19838,-0.0879 0.20089,-0.1959 0.05022,-1.9386 0.82617,-3.7541 2.19978,-5.1303 1.4188,-1.4238 3.30217,-2.2073 5.3111,-2.2073 3.4402804,0 6.2276804,-2.7874005 6.2276804,-6.2276505 z M 9.9053946,10.803441 c -2.3856,0 -4.31919,-1.9336405 -4.31919,-4.3192505 0,-2.3856 1.93359,-4.31919 4.31919,-4.31919 2.3855804,0 4.3191804,1.93359 4.3191804,4.31919 0,2.38561 -1.9336,4.3192505 -4.3191804,4.3192505 z m 2.6366804,5.5496 h 6.6295 c 0.1105,0 0.2009,-0.0904 0.2009,-0.2009 v -1.4062 c 0,-0.1105 -0.0904,-0.2009 -0.2009,-0.2009 h -4.4322 l 1.1853,-1.5092 c 0.0273,-0.0353 0.0423,-0.0785 0.0427,-0.1231 0,-0.1105 -0.0904,-0.2009 -0.2009,-0.2009 h -1.8231 c -0.1231,0 -0.2386,0.0578 -0.3164,0.1532 l -1.7202,2.1872 c -0.1105,0.1407 -0.1707,0.3164 -0.1707,0.4972 0.0025,0.4445 0.3616,0.8036 0.806,0.8036 z m 6.0268,1.6072 h -6.6294 c -0.1105,0 -0.2009,0.0904 -0.2009,0.2009 v 1.4062 c 0,0.1105 0.0904,0.2009 0.2009,0.2009 h 4.4322 l -1.1853,1.5092 c -0.0273,0.0352 -0.0423,0.0785 -0.0427,0.123 0,0.1105 0.0904,0.2009 0.2009,0.2009 h 1.8231 c 0.123,0 0.2386,-0.0577 0.3164,-0.1531 l 1.7202,-2.1873 c 0.1104,-0.1406 0.1707,-0.3164 0.1707,-0.4972 -0.0025,-0.4444 -0.3616,-0.8035 -0.8061,-0.8035 z"
     fill="#ff6b72"
     id="path2"
     style="fill:#f9f9f9" />
</svg>
